HIERARCHY
ROOT Hips
{
 OFFSET 0.000000 0.000000 0.000000
 CHANNELS 6 Xposition Yposition Zposition Yrotation Xrotation Zrotation
 JOINT Chest
 {
  OFFSET 0.000000 9.812683 -0.003552
  CHANNELS 3 Yrotation Xrotation Zrotation
  JOINT Chest2
  {
   OFFSET 0.000000 9.777810 0.007248
   CHANNELS 3 Yrotation Xrotation Zrotation
   JOINT Chest3
   {
    OFFSET 0.000000 9.736392 0.000000
    CHANNELS 3 Yrotation Xrotation Zrotation
    JOINT Chest4
    {
     OFFSET 0.000000 9.726454 0.000000
     CHANNELS 3 Yrotation Xrotation Zrotation
     JOINT Neck
     {
      OFFSET 0.000000 14.679095 0.000000
      CHANNELS 3 Yrotation Xrotation Zrotation
      JOINT Head
      {
       OFFSET 0.000000 9.104124 0.015333
       CHANNELS 3 Yrotation Xrotation Zrotation
       End Site
       {
        OFFSET 0.000000 17.313862 0.008094
       }
      }
     }
     JOINT RightCollar
     {
      OFFSET -2.991841 9.728033 0.000000
      CHANNELS 3 Yrotation Xrotation Zrotation
      JOINT RightShoulder
      {
       OFFSET -14.105608 0.000000 0.000000
       CHANNELS 3 Yrotation Xrotation Zrotation
       JOINT RightElbow
       {
        OFFSET -30.920614 0.000000 0.000000
        CHANNELS 3 Yrotation Xrotation Zrotation
        JOINT RightWrist
        {
         OFFSET -25.011638 0.000000 0.000000
         CHANNELS 3 Yrotation Xrotation Zrotation
         End Site
         {
          OFFSET -18.498852 0.000000 0.000000
         }
        }
       }
      }
     }
     JOINT LeftCollar
     {
      OFFSET 2.991841 9.728033 0.000000
      CHANNELS 3 Yrotation Xrotation Zrotation
      JOINT LeftShoulder
      {
       OFFSET 14.105608 0.000000 0.000000
       CHANNELS 3 Yrotation Xrotation Zrotation
       JOINT LeftElbow
       {
        OFFSET 30.920614 0.000000 0.000000
        CHANNELS 3 Yrotation Xrotation Zrotation
        JOINT LeftWrist
        {
         OFFSET 25.011638 0.000000 0.000000
         CHANNELS 3 Yrotation Xrotation Zrotation
         End Site
         {
          OFFSET 18.498852 0.000000 0.000000
         }
        }
       }
      }
     }
    }
   }
  }
 }
 JOINT RightHip
 {
  OFFSET -8.005612 0.017580 0.001776
  CHANNELS 3 Yrotation Xrotation Zrotation
  JOINT RightKnee
  {
   OFFSET 0.000000 -41.413990 -0.001697
   CHANNELS 3 Yrotation Xrotation Zrotation
   JOINT RightAnkle
   {
    OFFSET 0.000000 -40.303361 -0.002870
    CHANNELS 3 Yrotation Xrotation Zrotation
    JOINT RightToe
    {
     OFFSET 0.000000 -7.855341 17.873357
     CHANNELS 3 Yrotation Xrotation Zrotation
     End Site
     {
      OFFSET 0.000000 -1.536332 6.874071
     }
    }
   }
  }
 }
 JOINT LeftHip
 {
  OFFSET 8.005612 0.017580 0.001776
  CHANNELS 3 Yrotation Xrotation Zrotation
  JOINT LeftKnee
  {
   OFFSET 0.000000 -41.413990 -0.001697
   CHANNELS 3 Yrotation Xrotation Zrotation
   JOINT LeftAnkle
   {
    OFFSET 0.000000 -40.303361 -0.002870
    CHANNELS 3 Yrotation Xrotation Zrotation
    JOINT LeftToe
    {
     OFFSET 0.000000 -7.855341 17.873357
     CHANNELS 3 Yrotation Xrotation Zrotation
     End Site
     {
      OFFSET 0.000000 -1.536332 6.874071
     }
    }
   }
  }
 }
}
MOTION
Frames: 13
Frame Time: 0.008333
0.000000 89.373800 0.000000 0.000000 -5.767889 0.000000 0.000000 11.653876 0.000000 0.000000 -5.885988 0.000000 0.000000 -0.000000 0.000000 0.000000 -0.000000 0.000000 0.000000 12.528808 0.000000 0.000000 0.711711 0.000000 0.000000 -0.000000 0.000000 0.000000 -0.000000 0.000000 2.309063 -0.000000 0.000000 -2.309063 -0.000000 -0.000000 0.000000 -0.000000 0.000000 0.000000 0.000000 0.000000 -2.309063 0.000000 0.000000 2.309063 -0.000000 0.000000 0.000000 8.520374 0.000000 0.000000 1.905768 0.000000 -0.000000 -4.658254 0.000000 0.000000 -0.000000 0.000000 0.000000 8.520374 0.000000 0.000000 1.905768 0.000000 -0.000000 -4.658254 0.000000 0.000000 -0.000000 0.000000
-12.237826 91.272652 -4.058853 -139.779137 -8.216093 -0.723306 0.373847 3.464653 0.603678 0.204259 1.974021 0.328063 0.257129 2.467340 0.411241 0.204259 1.974021 0.328063 2.440439 15.940582 -1.039265 4.911885 -6.109201 -2.806178 8.037533 -2.717824 -4.855522 -3.278309 3.255905 91.342517 1.980352 7.239198 -2.278740 0.167096 -2.337893 2.791805 7.669559 -3.332769 2.636768 -0.669683 1.848158 -91.330310 3.390137 5.875578 2.626091 0.558397 -1.507016 -1.265984 -10.891108 8.645060 -1.829022 -3.643435 1.801469 0.437646 2.577712 -3.176995 -0.142267 -0.009163 0.090986 0.013152 -3.535874 7.788120 2.294346 -3.886051 6.332945 0.752144 0.931012 -7.171617 -2.979221 0.014741 0.013955 -0.004167
-12.238334 91.272407 -4.060702 -139.782189 -8.196941 -0.723966 0.367145 3.446532 0.606226 0.200371 1.963094 0.330408 0.252270 2.453684 0.414145 0.200371 1.963094 0.330408 2.439219 15.956591 -1.047640 4.911930 -6.079122 -2.820546 8.041639 -2.663048 -4.845298 -3.272200 3.235082 91.337207 2.015948 7.252188 -2.265384 0.176443 -2.345192 2.774940 7.679112 -3.284344 2.650773 -0.617064 1.945364 -91.297396 3.439240 5.881741 2.688754 0.586203 -1.496917 -1.277201 -10.925108 8.653883 -1.838415 -3.622686 1.749564 0.455494 2.586053 -3.163303 -0.150299 -0.010018 0.093255 0.010777 -3.549925 7.781495 2.292041 -3.886669 6.315867 0.759307 0.938829 -7.166048 -2.981571 0.014575 0.016659 -0.004001
-12.239199 91.272258 -4.063043 -139.784549 -8.178139 -0.726192 0.361557 3.428193 0.609738 0.197177 1.952169 0.333397 0.248284 2.440028 0.417858 0.197177 1.952169 0.333397 2.437856 15.972007 -1.055723 4.911627 -6.050161 -2.834346 8.046206 -2.607037 -4.835691 -3.265658 3.208245 91.328371 2.044900 7.260390 -2.250471 0.187798 -2.352298 2.754851 7.686774 -3.233058 2.661498 -0.564748 2.030381 -91.263149 3.483288 5.878581 2.746687 0.602008 -1.486553 -1.282455 -10.963882 8.664575 -1.847836 -3.597648 1.695925 0.473604 2.594195 -3.149214 -0.156122 -0.011462 0.094996 0.007477 -3.562574 7.775367 2.291476 -3.886165 6.299873 0.766151 0.945141 -7.162518 -2.983222 0.014030 0.019748 -0.004119
-12.240394 91.272192 -4.065556 -139.788774 -8.160066 -0.729398 0.357974 3.410804 0.614383 0.195276 1.941687 0.337023 0.245916 2.426925 0.422374 0.195276 1.941687 0.337023 2.435919 15.986155 -1.062935 4.909997 -6.023626 -2.846383 8.049317 -2.553720 -4.828077 -3.257373 3.178957 91.316872 2.067291 7.264921 -2.235096 0.202214 -2.357749 2.732105 7.692557 -3.181138 2.667034 -0.515224 2.102075 -91.226468 3.523484 5.868397 2.798100 0.605546 -1.481846 -1.280997 -10.998654 8.676120 -1.855791 -3.571987 1.642657 0.490685 2.600077 -3.135432 -0.161310 -0.013104 0.096385 0.004982 -3.571014 7.769618 2.294302 -3.881915 6.285499 0.768661 0.947726 -7.161130 -2.981450 0.013309 0.022962 -0.004791
-12.242104 91.272193 -4.067863 -139.793861 -8.143431 -0.732261 0.356040 3.394306 0.619384 0.194349 1.931752 0.340553 0.244766 2.414505 0.426776 0.194349 1.931752 0.340553 2.433514 15.999207 -1.068540 4.906969 -5.999231 -2.855317 8.048761 -2.503039 -4.822689 -3.242974 3.145326 91.304636 2.080683 7.266999 -2.219179 0.215153 -2.362407 2.710254 7.695424 -3.128877 2.669336 -0.466925 2.161891 -91.188058 3.556759 5.853328 2.842821 0.603472 -1.484355 -1.271490 -11.024950 8.688271 -1.862369 -3.550612 1.591246 0.505529 2.603231 -3.122736 -0.167439 -0.014279 0.097599 0.004827 -3.573625 7.764320 2.298184 -3.874629 6.273016 0.769271 0.945215 -7.161089 -2.978538 0.012808 0.025821 -0.004944
-12.244247 91.272191 -4.069284 -139.797610 -8.126104 -0.733498 0.354064 3.376659 0.623878 0.193437 1.921489 0.343439 0.243631 2.401676 0.430374 0.193437 1.921489 0.343439 2.431984 16.012910 -1.072998 4.905132 -5.973645 -2.862400 8.044581 -2.452458 -4.819641 -3.217786 3.104094 91.293209 2.082137 7.266802 -2.203247 0.223481 -2.368671 2.694775 7.697727 -3.073878 2.669120 -0.420457 2.211445 -91.148366 3.582011 5.833157 2.882191 0.599218 -1.489960 -1.255501 -11.041885 8.698028 -1.868238 -3.536778 1.542688 0.517720 2.603954 -3.111682 -0.174065 -0.014929 0.098911 0.006498 -3.570241 7.757085 2.300813 -3.868282 6.261274 0.770447 0.938730 -7.161013 -2.976724 0.012790 0.028287 -0.003953
-12.246443 91.272155 -4.069568 -139.799083 -8.106261 -0.734405 0.351736 3.357014 0.627817 0.192265 1.910301 0.345896 0.242167 2.387691 0.433433 0.192265 1.910301 0.345896 2.431692 16.028211 -1.076825 4.905301 -5.945066 -2.868674 8.037030 -2.402437 -4.818120 -3.181349 3.056042 91.284129 2.071244 7.263754 -2.190275 0.227866 -2.373988 2.687974 7.701892 -3.016312 2.667409 -0.376779 2.252592 -91.107487 3.600879 5.809508 2.917195 0.588597 -1.496408 -1.237256 -11.049340 8.703561 -1.872394 -3.532286 1.497155 0.529090 2.602850 -3.101433 -0.182121 -0.014995 0.099772 0.009451 -3.561197 7.744092 2.304926 -3.864123 6.253539 0.768923 0.928917 -7.162498 -2.973103 0.012764 0.030661 -0.003081
-12.248791 91.272170 -4.068938 -139.798586 -8.085604 -0.735479 0.349340 3.336471 0.631156 0.190941 1.898591 0.348014 0.240512 2.373054 0.436066 0.190941 1.898591 0.348014 2.432163 16.044235 -1.080209 4.906700 -5.915134 -2.874358 8.026869 -2.354186 -4.817615 -3.133451 3.001412 91.279465 2.047755 7.256251 -2.182230 0.230066 -2.374560 2.686549 7.709398 -2.956666 2.665702 -0.337358 2.282402 -91.065215 3.615761 5.782386 2.945654 0.571771 -1.503224 -1.218002 -11.048316 8.705558 -1.874289 -3.535306 1.456716 0.537957 2.600053 -3.092070 -0.189501 -0.015056 0.099451 0.012555 -3.547983 7.725959 2.310662 -3.859878 6.252558 0.764344 0.915388 -7.166750 -2.965972 0.012535 0.032676 -0.003418
-12.252070 91.272426 -4.067938 -139.794459 -8.069583 -0.735292 0.345188 3.316466 0.633836 0.188595 1.887254 0.349643 0.237576 2.358884 0.438084 0.188595 1.887254 0.349643 2.433552 16.060872 -1.083717 4.909822 -5.884015 -2.880569 8.016316 -2.306076 -4.818478 -3.075081 2.938868 91.278036 2.012587 7.245906 -2.178258 0.227166 -2.369611 2.687737 7.720531 -2.892179 2.662738 -0.301654 2.297112 -91.024101 3.627316 5.751569 2.968797 0.551002 -1.510170 -1.196318 -11.047438 8.709707 -1.878926 -3.539764 1.421183 0.545225 2.597293 -3.083757 -0.193915 -0.015875 0.097877 0.014143 -3.534184 7.709959 2.314030 -3.856275 6.255626 0.760185 0.900130 -7.172250 -2.957790 0.012488 0.033813 -0.004165
-12.256457 91.273041 -4.067011 -139.786155 -8.060768 -0.734157 0.338422 3.297463 0.637064 0.184748 1.876663 0.351289 0.232765 2.345649 0.440116 0.184748 1.876663 0.351289 2.435517 16.078750 -1.088782 4.914511 -5.850486 -2.889814 8.006266 -2.256638 -4.820418 -3.011909 2.870220 91.274766 1.970920 7.236691 -2.178652 0.213446 -2.358909 2.695493 7.734064 -2.821745 2.656321 -0.268275 2.299732 -90.985823 3.634177 5.718123 2.989136 0.526335 -1.516149 -1.173090 -11.056444 8.720700 -1.890123 -3.540427 1.386766 0.556516 2.596625 -3.074492 -0.199156 -0.016451 0.095034 0.014982 -3.519523 7.701109 2.314995 -3.855877 6.258364 0.757239 0.884849 -7.177198 -2.949674 0.012478 0.034156 -0.004794
-12.261501 91.274019 -4.066248 -139.775642 -8.057716 -0.733083 0.330064 3.279587 0.641279 0.180056 1.866741 0.353299 0.226900 2.333249 0.442599 0.180056 1.866741 0.353299 2.437352 16.097899 -1.096131 4.919714 -5.814484 -2.903192 7.997176 -2.209116 -4.819870 -2.951443 2.801768 91.265314 1.927928 7.233021 -2.184918 0.189570 -2.346149 2.714630 7.750369 -2.748452 2.647971 -0.238753 2.293188 -90.948847 3.636163 5.684742 3.004686 0.502073 -1.521625 -1.151528 -11.076436 8.737865 -1.905766 -3.535415 1.351614 0.571366 2.597398 -3.063055 -0.205819 -0.016377 0.091102 0.015404 -3.502246 7.698604 2.315786 -3.856645 6.259619 0.754151 0.868135 -7.181061 -2.940749 0.012430 0.033743 -0.005504
-12.266531 91.275261 -4.065327 -139.763121 -8.056181 -0.732513 0.320966 3.262412 0.645526 0.175111 1.857111 0.355511 0.220719 2.321216 0.445335 0.175111 1.857111 0.355511 2.438671 16.117842 -1.105176 4.924519 -5.776945 -2.919496 7.989909 -2.166831 -4.814239 -2.899636 2.737950 91.250129 1.888769 7.237354 -2.195825 0.159188 -2.334155 2.736832 7.767541 -2.676304 2.640022 -0.212919 2.275438 -90.913930 3.635049 5.654216 3.013788 0.482370 -1.529380 -1.129890 -11.104549 8.756250 -1.922627 -3.525862 1.316766 0.586298 2.599115 -3.050553 -0.210392 -0.016664 0.086798 0.014121 -3.484017 7.697278 2.316970 -3.858060 6.260619 0.751111 0.850808 -7.184081 -2.931293 0.012743 0.032687 -0.006369
